<svg width="14" height="14" viewBox="0 0 14 14" fill="none" xmlns="http://www.w3.org/2000/svg">
<path d="M12.5 0C12.9167 0 13.2708 0.145834 13.5625 0.437499C13.8542 0.729166 14 1.08333 14 1.50001V12.5C14 12.9167 13.8542 13.2708 13.5625 13.5625C13.2708 13.8542 12.9167 14 12.5 14H1.5C1.08333 14 0.729166 13.8542 0.437501 13.5625C0.145833 13.2708 0 12.9167 0 12.5V1.50001C0 1.08333 0.145833 0.729166 0.437501 0.437499C0.729166 0.145834 1.08333 0 1.5 0H12.5ZM12.5 12.5V1.50001H1.5V12.5H12.5ZM11.375 4.93749L6 10.2813C5.8125 10.4687 5.63542 10.4687 5.46875 10.2813L2.62499 7.43749C2.4375 7.25001 2.4375 7.07292 2.62499 6.90625L3.34374 6.18749C3.51042 6.02084 3.6875 6.02084 3.87501 6.18749L5.71875 8.09375L10.1563 3.71874C10.3229 3.53125 10.5 3.53125 10.6875 3.71874L11.375 4.40625C11.5625 4.59375 11.5625 4.77084 11.375 4.93749Z" fill="white"/>
</svg>
