<svg width="14" height="14" viewBox="0 0 14 14" fill="none" xmlns="http://www.w3.org/2000/svg">
<path d="M12.5 0C12.9167 0 13.2708 0.145832 13.5625 0.437499C13.8542 0.729167 14 1.08333 14 1.49999V12.5C14 12.9167 13.8542 13.2708 13.5625 13.5625C13.2708 13.8542 12.9167 14 12.5 14H1.5C1.08333 14 0.729166 13.8542 0.437501 13.5625C0.145833 13.2708 0 12.9167 0 12.5V1.49999C0 1.08333 0.145833 0.729167 0.437501 0.437499C0.729166 0.145832 1.08333 0 1.5 0H12.5ZM12.3125 12.5C12.4375 12.5 12.5 12.4375 12.5 12.3125V1.6875C12.5 1.56251 12.4375 1.49999 12.3125 1.49999H1.6875C1.5625 1.49999 1.5 1.56251 1.5 1.6875V12.3125C1.5 12.4375 1.5625 12.5 1.6875 12.5H12.3125Z" fill="white"/>
</svg>
